<svg xmlns="http://www.w3.org/2000/svg" enable-background="new 0 0 512 512" viewBox="0 0 512 512" id="digital-marketing"><path d="M504,293.462V80c0-13.234-10.766-24-24-24H232V8.961c0-2.91-1.578-5.59-4.125-6.996c-1.203-0.672-2.54-0.981-3.875-0.981
		V0.961H48.226c-0.018,0-0.036,0-0.053,0H48v0.019c-1.335,0-2.671,0.311-3.875,0.985C41.578,3.371,40,6.051,40,8.961V56h-8
		C18.766,56,8,66.766,8,80v272c0,13.234,10.766,24,24,24h191.784c-1.864,51.9-21.162,80.159-27.458,88H144
		c-13.234,0-24,10.766-24,24c0,6.488,2.531,12.531,6.992,16.867C131.477,509.465,137.516,512,144,512h224c13.234,0,24-10.766,24-24
		s-10.766-24-24-24h-52.326c-6.296-7.841-25.594-36.1-27.458-88h79.998c15.073,20.05,38.522,32,63.786,32c44.109,0,80-35.887,80-80
		C512,316.024,509.178,304.161,504,293.462z M56,23.398l75.758,47.383c2.594,1.625,5.891,1.625,8.484,0L216,23.398v87.641H56V23.398
		z M32,72h8v47.039c0,4.418,3.578,8,8,8h176c4.422,0,8-3.582,8-8V72h248c4.414,0,8,3.59,8,8v191.093
		C473.294,256.559,453.417,248,432,248c-41.409,0-75.566,31.629-79.594,72H24V80C24,75.59,27.586,72,32,72z M296.127,464h-80.255
		c9.561-15.336,22.46-44.035,23.908-88h32.439C273.667,419.965,286.567,448.664,296.127,464z M432,392
		c-21.406,0-41.289-10.633-53.203-28.457C371.734,353.016,368,340.727,368,328c0-35.289,28.711-64,64-64
		c24.062,0,45.859,13.324,56.883,34.777l0.023,0.035c4.641,8.93,7.094,19.02,7.094,29.188C496,363.289,467.289,392,432,392z"></path><path d="M474.984 296.578l-28.117-11.297c-9.586-3.789-20.141-3.797-29.773.016l-28.078 11.281c-4.102 1.645-6.086 6.305-4.438 10.406 1.641 4.098 6.312 6.078 10.406 4.438l28.039-11.266c5.789-2.285 12.18-2.285 17.914-.016l28.078 11.281c.977.395 1.992.582 2.984.582 3.164-.004 6.172-1.898 7.422-5.02C481.07 302.883 479.086 298.223 474.984 296.578zM467.594 328.852l-17.719-8.898c-11.359-5.625-24.383-5.637-35.789.02l-17.68 8.879c-3.945 1.98-5.539 6.789-3.555 10.738s6.781 5.555 10.742 3.559l17.641-8.859c6.836-3.398 14.703-3.395 21.492-.02l17.68 8.879c1.156.578 2.383.852 3.586.852 2.93 0 5.75-1.613 7.156-4.41C473.133 335.641 471.539 330.832 467.594 328.852zM451.547 352.832l-8.844-4.383c-6.711-3.359-14.703-3.359-21.367-.016l-8.883 4.398c-3.961 1.961-5.586 6.758-3.625 10.719 1.961 3.949 6.742 5.586 10.719 3.617l8.922-4.414c2.203-1.102 4.836-1.109 7.102.016l8.883 4.398c1.141.566 2.352.832 3.539.832 2.945 0 5.781-1.633 7.18-4.449C457.133 359.59 455.508 354.793 451.547 352.832zM280 216h8v24c0 13.234 10.766 24 24 24 6.484 0 12.523-2.535 16.859-6.988C333.469 252.531 336 246.488 336 240v-20.22l69.484 10.669c.867.145 1.734.215 2.602.215 3.719 0 7.352-1.312 10.242-3.766 3.609-3.051 5.672-7.52 5.672-12.258V200c17.648 0 32-14.355 32-32v-8c0-17.645-14.352-32-32-32v-13.922c0-4.906-2.188-9.473-6.008-12.527s-8.75-4.191-13.547-3.105L311.086 120H280c-17.648 0-32 14.355-32 32v32C248 201.645 262.352 216 280 216zM336.08 182.72c.72-4.4 4.88-7.36 9.2-6.64l48 8c4.4.72 7.36 4.88 6.64 9.2-.64 3.92-4.08 6.72-7.92 6.72-.4 0-.88 0-1.28-.08l-48-8C338.32 191.2 335.36 187.04 336.08 182.72zM320 240c0 2.137-.82 4.105-2.445 5.695C316.102 247.184 314.133 248 312 248c-4.414 0-8-3.59-8-8v-24h7.383l8.617 1.323V240zM440 160v8c0 8.824-7.18 16-16 16v-40C432.82 144 440 151.176 440 160zM264 152c0-8.824 7.18-16 16-16h24v64h-24c-8.82 0-16-7.176-16-16V152zM48 304h128c4.422 0 8-3.582 8-8v-16h24c4.422 0 8-3.582 8-8V160c0-4.418-3.578-8-8-8H88c-4.422 0-8 3.582-8 8v16H48c-4.422 0-8 3.582-8 8v112C40 300.418 43.578 304 48 304zM144 224H80c-4.4 0-8-3.6-8-8s3.6-8 8-8h64c4.4 0 8 3.6 8 8S148.4 224 144 224zM152 240c0 4.4-3.6 8-8 8h-8c-4.4 0-8-3.6-8-8s3.6-8 8-8h8C148.4 232 152 235.6 152 240zM80 232h24c4.4 0 8 3.6 8 8s-3.6 8-8 8H80c-4.4 0-8-3.6-8-8S75.6 232 80 232zM80 256h64c4.4 0 8 3.6 8 8s-3.6 8-8 8H80c-4.4 0-8-3.6-8-8S75.6 256 80 256zM96 168h104v96h-16v-80c0-4.418-3.578-8-8-8H96V168z"></path></svg>