<svg xmlns="http://www.w3.org/2000/svg" viewBox="0 0 64 64" id="mobile-app-store"><path d="M48.13 0H15.87a4.69 4.69 0 0 0-4.69 4.69v54.63c0 2.58 2.1 4.69 4.69 4.69h32.26c2.59 0 4.69-2.11 4.69-4.69V4.69C52.81 2.1 50.72 0 48.13 0zM27.87 2.98h8.26c.43 0 .79.35.79.79s-.35.79-.79.79h-8.26c-.44 0-.79-.35-.79-.79s.35-.79.79-.79zM32 61.97a2.456 2.456 0 1 1 0-4.91 2.456 2.456 0 1 1 0 4.91zm17-8.11c0 .65-.52 1.17-1.17 1.17H16.18c-.65 0-1.17-.52-1.17-1.17V8.71c0-.65.52-1.17 1.17-1.17h31.66c.65 0 1.17.52 1.17 1.17v45.15z"></path><path d="M42.84 26.22H35.5c-.39 0-.69.3-.69.69v7.33c0 .39.3.69.69.69h7.34c.39 0 .69-.3.69-.69v-7.33c0-.39-.3-.69-.69-.69zm-22.11 8.7h7.32c.39 0 .69-.3.69-.69V26.9c0-.39-.3-.69-.69-.69h-7.32c-.39 0-.69.3-.69.69v7.33c0 .39.3.69.69.69zm22.11-23.35H35.5c-.39 0-.69.3-.69.69v7.34c0 .39.3.69.69.69h7.34c.39 0 .69-.3.69-.69v-7.34c0-.39-.3-.69-.69-.69zm-22.11 8.71h7.32c.39 0 .69-.3.69-.69v-7.34c0-.39-.3-.69-.69-.69h-7.32c-.39 0-.69.3-.69.69v7.34c0 .39.3.69.69.69zm22.11 20.59H35.5c-.38 0-.69.31-.69.69v7.33c0 .38.31.69.69.69h7.34c.38 0 .69-.31.69-.69v-7.33c0-.38-.31-.69-.69-.69zm-14.32 4.6c-.24 0-.46.09-.63.26l-2.59 2.59v-8.33c0-.49-.4-.89-.89-.89s-.89.4-.89.89v8.33l-2.64-2.64a.877.877 0 0 0-.63-.26c-.24 0-.46.09-.63.26-.35.35-.35.91 0 1.25l4.16 4.16c.08.08.17.14.29.19.11.04.22.07.34.07.11 0 .23-.02.34-.07.11-.04.2-.11.29-.19l4.11-4.11c.35-.35.35-.91 0-1.25a.877.877 0 0 0-.63-.26z"></path></svg>